<svg width="33" height="32" viewBox="0 0 33 32" fill="none" xmlns="http://www.w3.org/2000/svg">
    <path d="M28.8148 8.83332H4.81481C4.5938 8.83332 4.38183 8.74553 4.22555 8.58925C4.06927 8.43296 3.98148 8.221 3.98148 7.99999C3.98148 7.77898 4.06927 7.56701 4.22555 7.41073C4.38183 7.25445 4.5938 7.16666 4.81481 7.16666H28.8148C29.0358 7.16666 29.2478 7.25445 29.4041 7.41073C29.5603 7.56701 29.6481 7.77898 29.6481 7.99999C29.6481 8.221 29.5603 8.43297 29.4041 8.58925C29.2478 8.74553 29.0358 8.83332 28.8148 8.83332ZM23.4815 14.1667H4.81481C4.5938 14.1667 4.38183 14.0789 4.22555 13.9226C4.06927 13.7663 3.98148 13.5543 3.98148 13.3333C3.98148 13.1123 4.06927 12.9003 4.22555 12.7441C4.38183 12.5878 4.5938 12.5 4.81481 12.5H23.4815C23.7025 12.5 23.9145 12.5878 24.0707 12.7441C24.227 12.9003 24.3148 13.1123 24.3148 13.3333C24.3148 13.5543 24.227 13.7663 24.0707 13.9226C23.9145 14.0789 23.7025 14.1667 23.4815 14.1667ZM28.8148 19.5H4.81481C4.5938 19.5 4.38183 19.4122 4.22555 19.2559C4.06927 19.0996 3.98148 18.8877 3.98148 18.6667C3.98148 18.4456 4.06927 18.2337 4.22555 18.0774C4.38183 17.9211 4.5938 17.8333 4.81481 17.8333H28.8148C29.0358 17.8333 29.2478 17.9211 29.4041 18.0774C29.5603 18.2337 29.6481 18.4456 29.6481 18.6667C29.6481 18.8877 29.5603 19.0996 29.4041 19.2559C29.2478 19.4122 29.0358 19.5 28.8148 19.5ZM23.4815 24.8333H4.81481C4.59379 24.8333 4.38183 24.7455 4.22555 24.5892C4.06927 24.433 3.98148 24.221 3.98148 24C3.98148 23.779 4.06927 23.567 4.22555 23.4107C4.38183 23.2545 4.59379 23.1667 4.81481 23.1667H23.4815C23.7025 23.1667 23.9145 23.2545 24.0707 23.4107C24.227 23.567 24.3148 23.779 24.3148 24C24.3148 24.221 24.227 24.433 24.0707 24.5892C23.9145 24.7455 23.7025 24.8333 23.4815 24.8333Z" fill="#006CF2" stroke="#006CF2"/>
</svg>
