<svg width="33" height="32" viewBox="0 0 33 32" fill="none" xmlns="http://www.w3.org/2000/svg">
    <path d="M28.8148 8.83332H4.81484C4.59383 8.83332 4.38186 8.74553 4.22558 8.58925C4.0693 8.43296 3.98151 8.221 3.98151 7.99999C3.98151 7.77898 4.0693 7.56701 4.22558 7.41073C4.38186 7.25445 4.59383 7.16666 4.81484 7.16666H28.8148C29.0359 7.16666 29.2478 7.25445 29.4041 7.41073C29.5604 7.56701 29.6482 7.77898 29.6482 7.99999C29.6482 8.221 29.5604 8.43297 29.4041 8.58925C29.2478 8.74553 29.0359 8.83332 28.8148 8.83332ZM10.1482 23.1667H28.8148C29.0359 23.1667 29.2478 23.2545 29.4041 23.4107C29.5604 23.567 29.6482 23.779 29.6482 24C29.6482 24.221 29.5604 24.433 29.4041 24.5892C29.2478 24.7455 29.0359 24.8333 28.8148 24.8333H10.1482C9.92716 24.8333 9.7152 24.7455 9.55892 24.5892C9.40264 24.433 9.31484 24.221 9.31484 24C9.31484 23.779 9.40264 23.567 9.55892 23.4107C9.7152 23.2545 9.92716 23.1667 10.1482 23.1667ZM10.1482 12.5H28.8148C29.0359 12.5 29.2478 12.5878 29.4041 12.7441C29.5604 12.9003 29.6482 13.1123 29.6482 13.3333C29.6482 13.5543 29.5604 13.7663 29.4041 13.9226C29.2478 14.0789 29.0359 14.1667 28.8148 14.1667H10.1482C9.92716 14.1667 9.7152 14.0789 9.55892 13.9226C9.40264 13.7663 9.31484 13.5543 9.31484 13.3333C9.31484 13.1123 9.40264 12.9003 9.55892 12.7441C9.7152 12.5878 9.92716 12.5 10.1482 12.5ZM4.81484 17.8333H28.8148C29.0359 17.8333 29.2478 17.9211 29.4041 18.0774C29.5604 18.2337 29.6482 18.4456 29.6482 18.6667C29.6482 18.8877 29.5604 19.0996 29.4041 19.2559C29.2478 19.4122 29.0359 19.5 28.8148 19.5H4.81484C4.59383 19.5 4.38186 19.4122 4.22558 19.2559C4.0693 19.0996 3.98151 18.8877 3.98151 18.6667C3.98151 18.4456 4.0693 18.2337 4.22558 18.0774C4.38186 17.9211 4.59383 17.8333 4.81484 17.8333Z" fill="#006CF2" stroke="#006CF2"/>
</svg>
