<svg width="33" height="32" viewBox="0 0 33 32" fill="none" xmlns="http://www.w3.org/2000/svg">
    <path d="M28.8148 8.83332H4.81484C4.59383 8.83332 4.38186 8.74553 4.22558 8.58925C4.0693 8.43296 3.98151 8.221 3.98151 7.99999C3.98151 7.77898 4.0693 7.56701 4.22558 7.41073C4.38186 7.25445 4.59383 7.16666 4.81484 7.16666H28.8148C29.0359 7.16666 29.2478 7.25445 29.4041 7.41073C29.5604 7.56701 29.6482 7.77898 29.6482 7.99999C29.6482 8.221 29.5604 8.43297 29.4041 8.58925C29.2478 8.74553 29.0359 8.83332 28.8148 8.83332ZM9.55892 12.7441C9.7152 12.5878 9.92716 12.5 10.1482 12.5H23.4815C23.7025 12.5 23.9145 12.5878 24.0708 12.7441C24.227 12.9003 24.3148 13.1123 24.3148 13.3333C24.3148 13.5543 24.227 13.7663 24.0708 13.9226C23.9145 14.0789 23.7025 14.1667 23.4815 14.1667H10.1482C9.92716 14.1667 9.7152 14.0789 9.55892 13.9226C9.40264 13.7663 9.31484 13.5543 9.31484 13.3333C9.31484 13.1123 9.40264 12.9003 9.55892 12.7441ZM4.81484 17.8333H28.8148C29.0359 17.8333 29.2478 17.9211 29.4041 18.0774C29.5604 18.2337 29.6482 18.4456 29.6482 18.6667C29.6482 18.8877 29.5604 19.0996 29.4041 19.2559C29.2478 19.4122 29.0359 19.5 28.8148 19.5H4.81484C4.59383 19.5 4.38186 19.4122 4.22558 19.2559C4.0693 19.0996 3.98151 18.8877 3.98151 18.6667C3.98151 18.4456 4.0693 18.2337 4.22558 18.0774C4.38186 17.9211 4.59383 17.8333 4.81484 17.8333ZM10.1482 23.1667H23.4815C23.7025 23.1667 23.9145 23.2545 24.0708 23.4107C24.227 23.567 24.3148 23.779 24.3148 24C24.3148 24.221 24.227 24.433 24.0708 24.5892C23.9145 24.7455 23.7025 24.8333 23.4815 24.8333H10.1482C9.92716 24.8333 9.7152 24.7455 9.55892 24.5892C9.40264 24.433 9.31484 24.221 9.31484 24C9.31484 23.779 9.40264 23.567 9.55892 23.4107C9.7152 23.2545 9.92716 23.1667 10.1482 23.1667Z" fill="#006CF2" stroke="#006CF2"/>
</svg>
