<svg width="33" height="32" viewBox="0 0 33 32" fill="none" xmlns="http://www.w3.org/2000/svg">
    <mask id="path-1-inside-1_1_920" fill="white">
        <path d="M8.49384 9C8.49384 8.73478 8.59919 8.48043 8.78673 8.29289C8.97427 8.10536 9.22862 8 9.49384 8H12.8272C13.0924 8 13.3467 8.10536 13.5343 8.29289C13.7218 8.48043 13.8272 8.73478 13.8272 9C13.8272 9.26522 13.7218 9.51957 13.5343 9.70711C13.3467 9.89464 13.0924 10 12.8272 10H11.9072L14.2005 12.2933C14.2988 12.3849 14.3776 12.4953 14.4322 12.6179C14.4869 12.7406 14.5163 12.873 14.5186 13.0073C14.521 13.1416 14.4963 13.2749 14.446 13.3995C14.3957 13.524 14.3208 13.6371 14.2259 13.7321C14.1309 13.827 14.0178 13.9019 13.8933 13.9522C13.7688 14.0025 13.6354 14.0272 13.5011 14.0248C13.3669 14.0224 13.2345 13.993 13.1118 13.9384C12.9891 13.8837 12.8787 13.8049 12.7872 13.7067L10.4938 11.4133V12.3347C10.4938 12.5999 10.3885 12.8542 10.2009 13.0418C10.0134 13.2293 9.75905 13.3347 9.49384 13.3347C9.22862 13.3347 8.97427 13.2293 8.78673 13.0418C8.59919 12.8542 8.49384 12.5999 8.49384 12.3347V9ZM23.4938 24.0013C23.7591 24.0013 24.0134 23.896 24.2009 23.7084C24.3885 23.5209 24.4938 23.2666 24.4938 23.0013V19.6667C24.4938 19.4015 24.3885 19.1471 24.2009 18.9596C24.0134 18.772 23.7591 18.6667 23.4938 18.6667C23.2286 18.6667 22.9743 18.772 22.7867 18.9596C22.5992 19.1471 22.4938 19.4015 22.4938 19.6667V20.5867L20.2005 18.2933C20.0109 18.1167 19.7602 18.0205 19.5011 18.0251C19.2421 18.0297 18.9949 18.1346 18.8117 18.3178C18.6285 18.5011 18.5235 18.7482 18.5189 19.0073C18.5144 19.2664 18.6105 19.5171 18.7872 19.7067L21.0805 22.0013H20.1605C19.8953 22.0013 19.6409 22.1067 19.4534 22.2942C19.2659 22.4818 19.1605 22.7361 19.1605 23.0013C19.1605 23.2666 19.2659 23.5209 19.4534 23.7084C19.6409 23.896 19.8953 24.0013 20.1605 24.0013H23.4938ZM24.2005 8.29467C24.3898 8.48133 24.4938 8.73467 24.4938 9.00133V12.3347C24.4938 12.5999 24.3885 12.8542 24.2009 13.0418C24.0134 13.2293 23.7591 13.3347 23.4938 13.3347C23.2286 13.3347 22.9743 13.2293 22.7867 13.0418C22.5992 12.8542 22.4938 12.5999 22.4938 12.3347V11.4147L20.2005 13.708C20.1082 13.8035 19.9978 13.8796 19.8758 13.9319C19.7538 13.9843 19.6225 14.0118 19.4898 14.0129C19.357 14.014 19.2253 13.9886 19.1024 13.9383C18.9796 13.888 18.868 13.8137 18.7741 13.7197C18.6803 13.6258 18.6061 13.5141 18.5558 13.3912C18.5056 13.2683 18.4804 13.1366 18.4816 13.0038C18.4828 12.871 18.5105 12.7398 18.5629 12.6178C18.6154 12.4958 18.6916 12.3855 18.7872 12.2933L21.0805 10H20.1605C19.8953 10 19.6409 9.89464 19.4534 9.70711C19.2659 9.51957 19.1605 9.26522 19.1605 9C19.1605 8.73478 19.2659 8.48043 19.4534 8.29289C19.6409 8.10536 19.8953 8 20.1605 8H23.4938C23.759 8.00023 24.0131 8.10574 24.2005 8.29333V8.29467ZM8.49384 23C8.49384 23.2652 8.59919 23.5196 8.78673 23.7071C8.97427 23.8946 9.22862 24 9.49384 24H12.8285C13.0937 24 13.3481 23.8946 13.5356 23.7071C13.7231 23.5196 13.8285 23.2652 13.8285 23C13.8285 22.7348 13.7231 22.4804 13.5356 22.2929C13.3481 22.1054 13.0937 22 12.8285 22H11.9085L14.2018 19.7067C14.3839 19.518 14.4846 19.2653 14.4822 19.0031C14.4798 18.7409 14.3745 18.4902 14.189 18.3048C14.0035 18.1195 13.7526 18.0145 13.4904 18.0123C13.2282 18.0102 12.9757 18.1111 12.7872 18.2933L10.4938 20.5867V19.6667C10.4938 19.4015 10.3885 19.1471 10.2009 18.9596C10.0134 18.772 9.75905 18.6667 9.49384 18.6667C9.22862 18.6667 8.97427 18.772 8.78673 18.9596C8.59919 19.1471 8.49384 19.4015 8.49384 19.6667V23ZM4.49384 7C4.49384 6.20435 4.80991 5.44129 5.37252 4.87868C5.93512 4.31607 6.69819 4 7.49384 4H25.4938C26.2895 4 27.0525 4.31607 27.6152 4.87868C28.1778 5.44129 28.4938 6.20435 28.4938 7V25C28.4938 25.7957 28.1778 26.5587 27.6152 27.1213C27.0525 27.6839 26.2895 28 25.4938 28H7.49384C6.69819 28 5.93512 27.6839 5.37252 27.1213C4.80991 26.5587 4.49384 25.7957 4.49384 25V7ZM7.49384 6C7.22862 6 6.97427 6.10536 6.78673 6.29289C6.59919 6.48043 6.49384 6.73478 6.49384 7V25C6.49384 25.552 6.94184 26 7.49384 26H25.4938C25.7591 26 26.0134 25.8946 26.2009 25.7071C26.3885 25.5196 26.4938 25.2652 26.4938 25V7C26.4938 6.73478 26.3885 6.48043 26.2009 6.29289C26.0134 6.10536 25.7591 6 25.4938 6H7.49384Z"/>
    </mask>
    <path d="M8.49384 9C8.49384 8.73478 8.59919 8.48043 8.78673 8.29289C8.97427 8.10536 9.22862 8 9.49384 8H12.8272C13.0924 8 13.3467 8.10536 13.5343 8.29289C13.7218 8.48043 13.8272 8.73478 13.8272 9C13.8272 9.26522 13.7218 9.51957 13.5343 9.70711C13.3467 9.89464 13.0924 10 12.8272 10H11.9072L14.2005 12.2933C14.2988 12.3849 14.3776 12.4953 14.4322 12.6179C14.4869 12.7406 14.5163 12.873 14.5186 13.0073C14.521 13.1416 14.4963 13.2749 14.446 13.3995C14.3957 13.524 14.3208 13.6371 14.2259 13.7321C14.1309 13.827 14.0178 13.9019 13.8933 13.9522C13.7688 14.0025 13.6354 14.0272 13.5011 14.0248C13.3669 14.0224 13.2345 13.993 13.1118 13.9384C12.9891 13.8837 12.8787 13.8049 12.7872 13.7067L10.4938 11.4133V12.3347C10.4938 12.5999 10.3885 12.8542 10.2009 13.0418C10.0134 13.2293 9.75905 13.3347 9.49384 13.3347C9.22862 13.3347 8.97427 13.2293 8.78673 13.0418C8.59919 12.8542 8.49384 12.5999 8.49384 12.3347V9ZM23.4938 24.0013C23.7591 24.0013 24.0134 23.896 24.2009 23.7084C24.3885 23.5209 24.4938 23.2666 24.4938 23.0013V19.6667C24.4938 19.4015 24.3885 19.1471 24.2009 18.9596C24.0134 18.772 23.7591 18.6667 23.4938 18.6667C23.2286 18.6667 22.9743 18.772 22.7867 18.9596C22.5992 19.1471 22.4938 19.4015 22.4938 19.6667V20.5867L20.2005 18.2933C20.0109 18.1167 19.7602 18.0205 19.5011 18.0251C19.2421 18.0297 18.9949 18.1346 18.8117 18.3178C18.6285 18.5011 18.5235 18.7482 18.5189 19.0073C18.5144 19.2664 18.6105 19.5171 18.7872 19.7067L21.0805 22.0013H20.1605C19.8953 22.0013 19.6409 22.1067 19.4534 22.2942C19.2659 22.4818 19.1605 22.7361 19.1605 23.0013C19.1605 23.2666 19.2659 23.5209 19.4534 23.7084C19.6409 23.896 19.8953 24.0013 20.1605 24.0013H23.4938ZM24.2005 8.29467C24.3898 8.48133 24.4938 8.73467 24.4938 9.00133V12.3347C24.4938 12.5999 24.3885 12.8542 24.2009 13.0418C24.0134 13.2293 23.7591 13.3347 23.4938 13.3347C23.2286 13.3347 22.9743 13.2293 22.7867 13.0418C22.5992 12.8542 22.4938 12.5999 22.4938 12.3347V11.4147L20.2005 13.708C20.1082 13.8035 19.9978 13.8796 19.8758 13.9319C19.7538 13.9843 19.6225 14.0118 19.4898 14.0129C19.357 14.014 19.2253 13.9886 19.1024 13.9383C18.9796 13.888 18.868 13.8137 18.7741 13.7197C18.6803 13.6258 18.6061 13.5141 18.5558 13.3912C18.5056 13.2683 18.4804 13.1366 18.4816 13.0038C18.4828 12.871 18.5105 12.7398 18.5629 12.6178C18.6154 12.4958 18.6916 12.3855 18.7872 12.2933L21.0805 10H20.1605C19.8953 10 19.6409 9.89464 19.4534 9.70711C19.2659 9.51957 19.1605 9.26522 19.1605 9C19.1605 8.73478 19.2659 8.48043 19.4534 8.29289C19.6409 8.10536 19.8953 8 20.1605 8H23.4938C23.759 8.00023 24.0131 8.10574 24.2005 8.29333V8.29467ZM8.49384 23C8.49384 23.2652 8.59919 23.5196 8.78673 23.7071C8.97427 23.8946 9.22862 24 9.49384 24H12.8285C13.0937 24 13.3481 23.8946 13.5356 23.7071C13.7231 23.5196 13.8285 23.2652 13.8285 23C13.8285 22.7348 13.7231 22.4804 13.5356 22.2929C13.3481 22.1054 13.0937 22 12.8285 22H11.9085L14.2018 19.7067C14.3839 19.518 14.4846 19.2653 14.4822 19.0031C14.4798 18.7409 14.3745 18.4902 14.189 18.3048C14.0035 18.1195 13.7526 18.0145 13.4904 18.0123C13.2282 18.0102 12.9757 18.1111 12.7872 18.2933L10.4938 20.5867V19.6667C10.4938 19.4015 10.3885 19.1471 10.2009 18.9596C10.0134 18.772 9.75905 18.6667 9.49384 18.6667C9.22862 18.6667 8.97427 18.772 8.78673 18.9596C8.59919 19.1471 8.49384 19.4015 8.49384 19.6667V23ZM4.49384 7C4.49384 6.20435 4.80991 5.44129 5.37252 4.87868C5.93512 4.31607 6.69819 4 7.49384 4H25.4938C26.2895 4 27.0525 4.31607 27.6152 4.87868C28.1778 5.44129 28.4938 6.20435 28.4938 7V25C28.4938 25.7957 28.1778 26.5587 27.6152 27.1213C27.0525 27.6839 26.2895 28 25.4938 28H7.49384C6.69819 28 5.93512 27.6839 5.37252 27.1213C4.80991 26.5587 4.49384 25.7957 4.49384 25V7ZM7.49384 6C7.22862 6 6.97427 6.10536 6.78673 6.29289C6.59919 6.48043 6.49384 6.73478 6.49384 7V25C6.49384 25.552 6.94184 26 7.49384 26H25.4938C25.7591 26 26.0134 25.8946 26.2009 25.7071C26.3885 25.5196 26.4938 25.2652 26.4938 25V7C26.4938 6.73478 26.3885 6.48043 26.2009 6.29289C26.0134 6.10536 25.7591 6 25.4938 6H7.49384Z" fill="#1B0044" stroke="#006CF2" stroke-width="2" mask="url(#path-1-inside-1_1_920)"/>
</svg>
