<svg width="33" height="32" viewBox="0 0 33 32" fill="none" xmlns="http://www.w3.org/2000/svg">
    <path d="M4.81482 22.9999L10.5748 8.41992H12.4348L18.1748 22.9999H15.3548L14.7948 20.6199H8.23482L7.49482 22.9999H4.81482ZM14.1948 18.2999L11.4948 10.2199L8.81482 18.2999H14.1948Z" fill="#006CF2"/>
    <path d="M28.3439 16.7599V22.9999H26.5439V21.4399C25.7239 22.6399 24.5439 23.2799 22.7639 23.2799C20.5439 23.2799 19.1039 21.9199 19.1039 19.8199C19.1039 17.3599 20.7639 16.0999 24.0239 16.0999H26.5439V15.9199C26.5439 14.2599 25.5439 13.2599 23.4439 13.1199C22.2039 13.1199 21.0039 13.4199 19.9039 14.0199V12.5599C21.2239 12.0599 22.4639 11.7999 23.6239 11.7999C26.8039 11.7999 28.3439 13.4199 28.3439 16.7599ZM25.5439 17.4199H23.9239C21.3039 17.4199 20.6239 17.9799 20.6039 19.3199C20.8039 20.4399 21.7439 20.5399 23.0439 20.5399C24.8439 20.5399 25.5439 20.1599 25.5439 17.8199V17.4199Z" fill="#006CF2"/>
</svg>
