<svg width="33" height="32" viewBox="0 0 33 32" fill="none" xmlns="http://www.w3.org/2000/svg">
    <path d="M26.1482 6.16667H11.4886L9.82194 4.5H26.1482C26.7477 4.5 27.2489 4.70782 27.6786 5.13755C28.1083 5.56727 28.3156 6.0678 28.3148 6.66606V6.66667V22.9929L26.6482 21.3262V6.66667V6.16667H26.1482ZM28.8148 6.66667V23.4929V6.66667ZM5.31484 25.3339V25.3333V7.73333V7.52623L5.16839 7.37978L3.96839 6.17978C3.82688 6.03827 3.74817 5.85872 3.74817 5.6C3.74817 5.34128 3.82688 5.16173 3.96839 5.02022C4.1099 4.87871 4.28945 4.8 4.54817 4.8C4.80688 4.8 4.98644 4.87871 5.12795 5.02022L27.7946 27.6869C27.9361 27.8284 28.0148 28.008 28.0148 28.2667C28.0148 28.5254 27.9361 28.7049 27.7946 28.8464C27.6531 28.988 27.4736 29.0667 27.2148 29.0667C26.9561 29.0667 26.7766 28.988 26.6351 28.8464L25.4351 27.6464L25.2886 27.5H25.0815H7.4815C6.88196 27.5 6.38079 27.2922 5.95106 26.8624C5.52134 26.4327 5.31411 25.9322 5.31484 25.3339ZM20.0684 22.3131L19.9219 22.1667H19.7148H15.8148L16.2148 21.6333L17.3148 20.1667L17.575 19.8197L17.2684 19.5131L7.83506 10.0798L6.9815 9.22623V10.4333V25.3333V25.8333H7.4815H22.3815H23.5886L22.7351 24.9798L20.0684 22.3131ZM15.4144 21.6327L15.8135 22.1667H10.1482C10.0939 22.1667 10.07 22.1552 10.0589 22.1484C10.0466 22.1409 10.0197 22.1204 9.98712 22.0606C9.97256 22.0339 9.96671 22.0157 9.96434 22.0055C9.96212 21.9959 9.96238 21.9912 9.96258 21.9891L9.96259 21.989C9.96272 21.9875 9.96472 21.963 10.0053 21.9123L10.0104 21.906L10.0153 21.8994L12.6815 18.3333C12.6815 18.3333 12.6816 18.3332 12.6816 18.3332C12.7205 18.2814 12.7501 18.2667 12.8148 18.2667C12.8796 18.2667 12.9092 18.2814 12.9481 18.3332C12.9481 18.3332 12.9481 18.3333 12.9482 18.3333L15.4144 21.6327Z" fill="#006CF2" stroke="#006CF2"/>
</svg>
