<svg width="33" height="32" viewBox="0 0 33 32" fill="none" xmlns="http://www.w3.org/2000/svg">
    <path d="M17.3148 4.75V4.25L16.8148 4.25C14.4909 4.24998 12.2191 4.93909 10.2868 6.2302C8.35452 7.52131 6.84848 9.35641 5.95914 11.5035C5.0698 13.6505 4.83712 16.0131 5.2905 18.2923C5.74385 20.5715 6.86282 22.665 8.50592 24.3082C9.59465 25.4027 10.8896 26.2705 12.3159 26.8613C13.7425 27.4522 15.2721 27.7542 16.8162 27.75L17.3148 27.7486V27.25V4.75ZM3.31482 16C3.31482 8.54427 9.35909 2.5 16.8148 2.5C24.2706 2.5 30.3148 8.54427 30.3148 16C30.3148 23.4557 24.2706 29.5 16.8148 29.5C9.35909 29.5 3.31482 23.4557 3.31482 16Z" fill="#006CF2" stroke="#006CF2"/>
</svg>
