<svg width="33" height="32" viewBox="0 0 33 32" fill="none" xmlns="http://www.w3.org/2000/svg">
    <path d="M16.8148 16.6666C17.183 16.6666 17.4815 16.3682 17.4815 16C17.4815 15.6318 17.183 15.3333 16.8148 15.3333C16.4466 15.3333 16.1481 15.6318 16.1481 16C16.1481 16.3682 16.4466 16.6666 16.8148 16.6666Z" fill="#006CF2" stroke="#006CF2" stroke-width="2" stroke-linecap="round" stroke-linejoin="round"/>
    <path d="M7.48149 16C7.48149 17.2257 7.7229 18.4393 8.19194 19.5717C8.66099 20.7041 9.34848 21.733 10.2152 22.5997C11.0818 23.4663 12.1107 24.1538 13.2431 24.6229C14.3755 25.0919 15.5891 25.3333 16.8148 25.3333M7.48149 16C7.48149 14.7743 7.7229 13.5607 8.19194 12.4283C8.66099 11.2959 9.34848 10.267 10.2152 9.40034C11.0818 8.53366 12.1107 7.84617 13.2431 7.37712C14.3755 6.90808 15.5891 6.66667 16.8148 6.66667M7.48149 16H4.81482M16.8148 25.3333C18.0405 25.3333 19.2542 25.0919 20.3865 24.6229C21.5189 24.1538 22.5478 23.4663 23.4145 22.5997C24.2812 21.733 24.9687 20.7041 25.4377 19.5717C25.9067 18.4393 26.1482 17.2257 26.1482 16M16.8148 25.3333V28M26.1482 16C26.1482 14.7743 25.9067 13.5607 25.4377 12.4283C24.9687 11.2959 24.2812 10.267 23.4145 9.40034C22.5478 8.53366 21.5189 7.84617 20.3865 7.37712C19.2542 6.90808 18.0405 6.66667 16.8148 6.66667M26.1482 16H28.8148M16.8148 6.66667V4" stroke="#006CF2" stroke-width="2" stroke-linecap="round" stroke-linejoin="round"/>
</svg>
