<svg width="33" height="32" viewBox="0 0 33 32" fill="none" xmlns="http://www.w3.org/2000/svg">
    <path d="M12.4938 20L20.4938 12M15.1605 8.00002L15.7778 7.28535C17.0282 6.03512 18.7241 5.33282 20.4923 5.33295C22.2605 5.33307 23.9563 6.03561 25.2065 7.28602C26.4567 8.53643 27.159 10.2323 27.1589 12.0005C27.1588 13.7687 26.4562 15.4645 25.2058 16.7147L24.4938 17.3334M17.8272 24L17.2978 24.712C16.0328 25.9629 14.3255 26.6645 12.5465 26.6645C10.7674 26.6645 9.06016 25.9629 7.79515 24.712C7.17163 24.0955 6.67661 23.3614 6.33877 22.5522C6.00092 21.743 5.82697 20.8749 5.82697 19.998C5.82697 19.1212 6.00092 18.253 6.33877 17.4438C6.67661 16.6347 7.17163 15.9006 7.79515 15.284L8.49382 14.6667" stroke="#006CF2" stroke-width="2" stroke-linecap="round" stroke-linejoin="round"/>
</svg>
