<svg width="33" height="32" viewBox="0 0 33 32" fill="none" xmlns="http://www.w3.org/2000/svg">
    <path d="M7.87728 16.1171C8.2196 14.3008 9.06617 12.6386 10.3037 11.3423L10.3077 11.3391L10.3297 11.3166L16.6595 4.83557C16.6596 4.83551 16.6597 4.83544 16.6597 4.83537C16.7063 4.78789 16.7625 4.76667 16.8148 4.76667C16.8673 4.76667 16.9235 4.78794 16.9701 4.83552C16.9701 4.83553 16.9701 4.83555 16.9701 4.83557L23.3032 11.32C23.3036 11.3205 23.3041 11.321 23.3046 11.3215C24.5537 12.6211 25.4081 14.2921 25.7525 16.1189C26.0908 17.9361 25.8975 19.819 25.1996 21.515C24.4908 23.2296 23.319 24.6779 21.8372 25.6796L21.8367 25.6799C20.3351 26.6972 18.5925 27.2352 16.8154 27.2333H16.8143C15.0372 27.2352 13.2946 26.6972 11.793 25.6799L11.7926 25.6796C10.3106 24.6774 9.13873 23.2284 8.42993 21.5132C7.73211 19.8171 7.53888 17.9342 7.87728 16.1171Z" fill="#006CF2" stroke="#006CF2"/>
</svg>
