<svg width="33" height="32" viewBox="0 0 33 32" fill="none" xmlns="http://www.w3.org/2000/svg">
    <path d="M30.3148 20V20.0003C30.3152 20.6699 30.1235 21.3255 29.7624 21.8895C29.4813 22.3285 29.1068 22.6975 28.6677 22.9716C28.5549 22.8126 28.4288 22.6632 28.2907 22.5248L28.2904 22.5244L20.2905 14.5246C20.2904 14.5245 20.2904 14.5245 20.2904 14.5244C19.8009 14.0347 19.1772 13.7011 18.4981 13.566C17.8189 13.4308 17.1149 13.5001 16.4752 13.7652C15.8355 14.0302 15.2887 14.479 14.9042 15.0549C14.5196 15.6307 14.3146 16.3076 14.3148 17C14.3148 17.0001 14.3148 17.0002 14.3148 17.0002V23.5H6.81482C5.88656 23.5 4.99632 23.1313 4.33995 22.4749C3.68357 21.8185 3.31482 20.9283 3.31482 20V10C3.31482 9.07174 3.68357 8.1815 4.33995 7.52513C4.99632 6.86875 5.88656 6.5 6.81482 6.5H26.8148C27.7431 6.5 28.6333 6.86875 29.2897 7.52513C29.9461 8.1815 30.3148 9.07174 30.3148 10V20ZM18.1688 16.6451L18.1693 16.6456L26.1693 24.6456L26.1697 24.646C26.2398 24.7159 26.2876 24.8051 26.307 24.9022C26.3263 24.9993 26.3164 25.1 26.2785 25.1915C26.2406 25.2829 26.1764 25.3611 26.094 25.416C26.0116 25.4709 25.9147 25.5002 25.8157 25.5H25.8148H21.3148H21.0648L20.9148 25.7L18.2148 29.3C18.1519 29.384 18.0641 29.446 17.9639 29.4773C17.8637 29.5085 17.7563 29.5075 17.6567 29.4743C17.5571 29.4412 17.4706 29.3775 17.4092 29.2924C17.3478 29.2072 17.3148 29.1049 17.3148 29L17.3148 17L17.3148 16.9991C17.3146 16.9001 17.3439 16.8032 17.3988 16.7209C17.4537 16.6385 17.5319 16.5742 17.6234 16.5363C17.7148 16.4984 17.8155 16.4885 17.9126 16.5079C18.0097 16.5272 18.0989 16.575 18.1688 16.6451ZM21.3148 26H25.8148C26.0129 26.0004 26.2065 25.9419 26.3713 25.832C26.5361 25.7222 26.6646 25.5659 26.7404 25.3829C26.8162 25.2 26.836 24.9986 26.7973 24.8044C26.7586 24.6102 26.663 24.4319 26.5228 24.292L18.5228 16.292C18.383 16.1518 18.2046 16.0563 18.0104 16.0175C17.8162 15.9788 17.6148 15.9986 17.4319 16.0744C17.2489 16.1503 17.0926 16.2787 16.9828 16.4435C16.8729 16.6083 16.8145 16.802 16.8148 17L21.3148 26Z" fill="#006CF2" stroke="#006CF2"/>
</svg>
