<svg width="33" height="32" viewBox="0 0 33 32" fill="none" xmlns="http://www.w3.org/2000/svg">
    <path d="M23.2412 15.5479L28.4707 3.18083C28.4709 3.18033 28.4711 3.17984 28.4713 3.17935C28.5387 3.0242 28.6645 2.90182 28.8215 2.83879C28.979 2.77555 29.1551 2.77716 29.3114 2.84327C29.4677 2.90937 29.5916 3.03461 29.6559 3.19166C29.72 3.34822 29.7199 3.52372 29.6555 3.68011C29.6552 3.68061 29.655 3.68111 29.6548 3.68161L23.3705 18.5355L23.3531 18.5765C23.303 18.6757 23.2278 18.7604 23.1347 18.8221C23.0294 18.8919 22.9059 18.9291 22.7796 18.9291C22.6532 18.9291 22.5297 18.8919 22.4244 18.8221C22.3191 18.7523 22.2367 18.653 22.1875 18.5366L22.1875 18.5366L15.9018 3.67947L15.9017 3.67932C15.8688 3.60156 15.8515 3.51807 15.8508 3.43363C15.8501 3.34918 15.8661 3.26544 15.8978 3.18717C15.9618 3.02909 16.086 2.90293 16.2431 2.83642C16.4001 2.76992 16.5772 2.76853 16.7352 2.83256C16.8933 2.89656 17.0194 3.02071 17.0859 3.1777C17.086 3.17774 17.086 3.17779 17.086 3.17783L22.3202 15.548L22.7808 16.6366L23.2412 15.5479ZM17.0859 18.0348L17.086 18.035C17.1525 18.192 17.1539 18.3691 17.0899 18.5271C17.0258 18.6852 16.9016 18.8114 16.7446 18.8779C16.5875 18.9444 16.4105 18.9458 16.2524 18.8817C16.0944 18.8177 15.9683 18.6936 15.9018 18.5366C15.9017 18.5366 15.9017 18.5365 15.9017 18.5365L14.264 14.6658L14.1349 14.3606H13.8036H6.6127H6.28133L6.15221 14.6658L4.51456 18.5365C4.48163 18.6142 4.43371 18.6847 4.37353 18.744C4.31335 18.8032 4.24209 18.85 4.16382 18.8817C4.08555 18.9134 4.0018 18.9294 3.91736 18.9287C3.83291 18.9281 3.74942 18.9108 3.67166 18.8779C3.5939 18.8449 3.52338 18.797 3.46414 18.7368C3.4049 18.6767 3.35809 18.6054 3.32639 18.5271C3.29469 18.4489 3.27871 18.3651 3.27938 18.2807C3.28004 18.1962 3.29733 18.1127 3.33026 18.035L3.33032 18.0348L9.61596 3.17786C9.61599 3.1778 9.61601 3.17774 9.61604 3.17768C9.6653 3.06146 9.74769 2.96232 9.85293 2.89261C9.95823 2.82287 10.0817 2.78569 10.208 2.78572H10.2081H10.209C10.3352 2.78586 10.4585 2.82309 10.5636 2.89279C10.6687 2.96249 10.751 3.06156 10.8002 3.17768C10.8002 3.17774 10.8003 3.1778 10.8003 3.17786L17.0859 18.0348ZM12.8378 13.0749H13.5924L13.2983 12.38L10.6686 6.16739L10.208 5.07936L9.74765 6.16746L7.11907 12.38L6.82509 13.0749H7.57955H7.5807H12.8378ZM25.1432 22.4457L25.1432 22.4457C25.1973 22.3808 25.2636 22.3271 25.3384 22.2879C25.4131 22.2486 25.4949 22.2245 25.579 22.2168C25.6632 22.2092 25.748 22.2182 25.8286 22.2433C25.9092 22.2685 25.9841 22.3093 26.049 22.3634L26.0492 22.3635L29.4777 25.2207L29.4779 25.2208C29.5504 25.2812 29.6087 25.3567 29.6487 25.4421C29.6887 25.5274 29.7094 25.6206 29.7094 25.7149C29.7094 25.8091 29.6887 25.9023 29.6487 25.9877C29.6087 26.073 29.5504 26.1486 29.4779 26.2089L29.4777 26.209L26.0493 29.0661C26.0493 29.0661 26.0492 29.0661 26.0492 29.0662C25.9182 29.1752 25.7492 29.2278 25.5794 29.2123C25.4096 29.1968 25.2529 29.1145 25.1438 28.9835C25.0346 28.8524 24.982 28.6834 24.9975 28.5136C25.013 28.3438 25.0953 28.1871 25.2264 28.0779L25.2268 28.0776L26.2291 27.241L27.288 26.3571H25.9087H7.07898H5.69844L6.7588 27.2412L7.76223 28.0778L7.76244 28.0779C7.82732 28.132 7.88093 28.1982 7.92019 28.273C7.95946 28.3477 7.98362 28.4295 7.99129 28.5136C7.99896 28.5977 7.99 28.6824 7.9649 28.7631C7.93981 28.8437 7.89909 28.9186 7.84505 28.9835C7.79102 29.0483 7.72473 29.102 7.64999 29.1412C7.57524 29.1805 7.49349 29.2046 7.4094 29.2123C7.32531 29.22 7.24054 29.211 7.15992 29.1859C7.0793 29.1608 7.00441 29.1201 6.93952 29.0661L3.51107 26.209L3.51091 26.2089C3.43845 26.1486 3.38014 26.073 3.34013 25.9877C3.30012 25.9023 3.27938 25.8091 3.27938 25.7149C3.27938 25.6206 3.30012 25.5274 3.34013 25.4421C3.38014 25.3567 3.43845 25.2812 3.51091 25.2208L3.51107 25.2207L6.93952 22.3636C7.0044 22.3096 7.07929 22.2689 7.15992 22.2438C7.24054 22.2187 7.32531 22.2097 7.4094 22.2174C7.49348 22.2251 7.57523 22.2492 7.64999 22.2885C7.72474 22.3278 7.79102 22.3814 7.84505 22.4463C7.89909 22.5111 7.93981 22.586 7.9649 22.6667C7.99 22.7473 7.99896 22.832 7.99129 22.9161C7.98362 23.0002 7.95946 23.082 7.92019 23.1567C7.88094 23.2315 7.82735 23.2977 7.76249 23.3517C7.76247 23.3518 7.76246 23.3518 7.76244 23.3518L6.75906 24.1872L5.69699 25.0714H7.07898H25.9087H27.2892L26.2289 24.1874L25.2255 23.3508C25.2255 23.3508 25.2255 23.3508 25.2254 23.3508C25.0946 23.2417 25.0124 23.085 24.9969 22.9153C24.9815 22.7456 25.0341 22.5767 25.1432 22.4457Z" fill="#006CF2" stroke="#006CF2"/>
</svg>
