<svg width="33" height="32" viewBox="0 0 33 32" fill="none" xmlns="http://www.w3.org/2000/svg">
    <mask id="path-1-inside-1_57_220" fill="white">
        <path d="M14.8169 4V2C14.8169 1.60218 14.9749 1.22064 15.2562 0.93934C15.5375 0.658035 15.9191 0.5 16.3169 0.5C16.7147 0.5 17.0962 0.658035 17.3776 0.93934C17.6589 1.22064 17.8169 1.60218 17.8169 2V4C17.8169 4.39782 17.6589 4.77936 17.3776 5.06066C17.0962 5.34196 16.7147 5.5 16.3169 5.5C15.9191 5.5 15.5375 5.34196 15.2562 5.06066C14.9749 4.77936 14.8169 4.39782 14.8169 4ZM24.8169 16C24.8169 17.6811 24.3184 19.3245 23.3844 20.7223C22.4504 22.1202 21.1229 23.2096 19.5697 23.853C18.0165 24.4963 16.3075 24.6646 14.6586 24.3367C13.0098 24.0087 11.4952 23.1992 10.3065 22.0104C9.11774 20.8217 8.30819 19.3071 7.98022 17.6583C7.65225 16.0094 7.82057 14.3004 8.46392 12.7472C9.10726 11.194 10.1967 9.8665 11.5945 8.93251C12.9924 7.99852 14.6358 7.5 16.3169 7.5C18.5705 7.50232 20.7312 8.39859 22.3247 9.99215C23.9183 11.5857 24.8146 13.7464 24.8169 16ZM21.8169 16C21.8169 14.9122 21.4943 13.8488 20.89 12.9444C20.2856 12.0399 19.4266 11.3349 18.4217 10.9187C17.4167 10.5024 16.3108 10.3935 15.2439 10.6057C14.177 10.8179 13.197 11.3417 12.4278 12.1109C11.6586 12.8801 11.1348 13.8601 10.9226 14.927C10.7104 15.9939 10.8193 17.0998 11.2356 18.1048C11.6518 19.1098 12.3568 19.9687 13.2613 20.5731C14.1657 21.1774 15.2291 21.5 16.3169 21.5C17.7751 21.4983 19.1731 20.9184 20.2042 19.8873C21.2352 18.8562 21.8152 17.4582 21.8169 16ZM6.75564 8.56125C6.89517 8.70078 7.06082 8.81146 7.24312 8.88697C7.42543 8.96249 7.62082 9.00135 7.81814 9.00135C8.01547 9.00135 8.21086 8.96249 8.39317 8.88697C8.57547 8.81146 8.74112 8.70078 8.88064 8.56125C9.02017 8.42172 9.13085 8.25607 9.20637 8.07377C9.28188 7.89147 9.32075 7.69607 9.32075 7.49875C9.32075 7.30143 9.28188 7.10603 9.20637 6.92373C9.13085 6.74143 9.02017 6.57578 8.88064 6.43625L7.38064 4.93625C7.09885 4.65446 6.71666 4.49615 6.31814 4.49615C5.91963 4.49615 5.53744 4.65446 5.25564 4.93625C4.97385 5.21804 4.81554 5.60024 4.81554 5.99875C4.81554 6.39726 4.97385 6.77946 5.25564 7.06125L6.75564 8.56125ZM6.75564 23.4363L5.25564 24.9363C5.11611 25.0758 5.00543 25.2414 4.92992 25.4237C4.85441 25.606 4.81554 25.8014 4.81554 25.9988C4.81554 26.1961 4.85441 26.3915 4.92992 26.5738C5.00543 26.7561 5.11611 26.9217 5.25564 27.0613C5.53744 27.343 5.91963 27.5014 6.31814 27.5014C6.51547 27.5014 6.71086 27.4625 6.89317 27.387C7.07547 27.3115 7.24111 27.2008 7.38064 27.0613L8.88064 25.5613C9.16244 25.2795 9.32075 24.8973 9.32075 24.4988C9.32075 24.1002 9.16244 23.718 8.88064 23.4363C8.59885 23.1545 8.21666 22.9961 7.81814 22.9961C7.41963 22.9961 7.03744 23.1545 6.75564 23.4363ZM24.8169 9C25.0139 9.00015 25.2091 8.96149 25.3912 8.8862C25.5733 8.81092 25.7387 8.7005 25.8781 8.56125L27.3781 7.06125C27.5177 6.92172 27.6284 6.75607 27.7039 6.57377C27.7794 6.39147 27.8182 6.19607 27.8182 5.99875C27.8182 5.80143 27.7794 5.60603 27.7039 5.42373C27.6284 5.24143 27.5177 5.07578 27.3781 4.93625C27.2386 4.79672 27.073 4.68604 26.8907 4.61053C26.7084 4.53501 26.513 4.49615 26.3156 4.49615C26.1183 4.49615 25.9229 4.53501 25.7406 4.61053C25.5583 4.68604 25.3927 4.79672 25.2531 4.93625L23.7531 6.43625C23.5421 6.64605 23.3983 6.91388 23.3399 7.20567C23.2815 7.49745 23.3112 7.80002 23.4252 8.07487C23.5393 8.34973 23.7325 8.58445 23.9803 8.74919C24.2281 8.91392 24.5193 9.00123 24.8169 9ZM25.8781 23.4387C25.5964 23.157 25.2142 22.9986 24.8156 22.9986C24.4171 22.9986 24.0349 23.157 23.7531 23.4387C23.4714 23.7205 23.313 24.1027 23.313 24.5012C23.313 24.8998 23.4714 25.282 23.7531 25.5637L25.2531 27.0637C25.5349 27.3455 25.9171 27.5039 26.3156 27.5039C26.7142 27.5039 27.0964 27.3455 27.3781 27.0637C27.6599 26.782 27.8182 26.3998 27.8182 26.0012C27.8182 25.6027 27.6599 25.2205 27.3781 24.9387L25.8781 23.4387ZM5.81689 16C5.81689 15.6022 5.65886 15.2206 5.37755 14.9393C5.09625 14.658 4.71472 14.5 4.31689 14.5H2.31689C1.91907 14.5 1.53754 14.658 1.25623 14.9393C0.97493 15.2206 0.816895 15.6022 0.816895 16C0.816895 16.3978 0.97493 16.7794 1.25623 17.0607C1.53754 17.342 1.91907 17.5 2.31689 17.5H4.31689C4.71472 17.5 5.09625 17.342 5.37755 17.0607C5.65886 16.7794 5.81689 16.3978 5.81689 16ZM16.3169 26.5C15.9191 26.5 15.5375 26.658 15.2562 26.9393C14.9749 27.2206 14.8169 27.6022 14.8169 28V30C14.8169 30.3978 14.9749 30.7794 15.2562 31.0607C15.5375 31.342 15.9191 31.5 16.3169 31.5C16.7147 31.5 17.0962 31.342 17.3776 31.0607C17.6589 30.7794 17.8169 30.3978 17.8169 30V28C17.8169 27.6022 17.6589 27.2206 17.3776 26.9393C17.0962 26.658 16.7147 26.5 16.3169 26.5ZM30.3169 14.5H28.3169C27.9191 14.5 27.5375 14.658 27.2562 14.9393C26.9749 15.2206 26.8169 15.6022 26.8169 16C26.8169 16.3978 26.9749 16.7794 27.2562 17.0607C27.5375 17.342 27.9191 17.5 28.3169 17.5H30.3169C30.7147 17.5 31.0962 17.342 31.3776 17.0607C31.6589 16.7794 31.8169 16.3978 31.8169 16C31.8169 15.6022 31.6589 15.2206 31.3776 14.9393C31.0962 14.658 30.7147 14.5 30.3169 14.5Z"/>
    </mask>
    <path d="M14.8169 4V2C14.8169 1.60218 14.9749 1.22064 15.2562 0.93934C15.5375 0.658035 15.9191 0.5 16.3169 0.5C16.7147 0.5 17.0962 0.658035 17.3776 0.93934C17.6589 1.22064 17.8169 1.60218 17.8169 2V4C17.8169 4.39782 17.6589 4.77936 17.3776 5.06066C17.0962 5.34196 16.7147 5.5 16.3169 5.5C15.9191 5.5 15.5375 5.34196 15.2562 5.06066C14.9749 4.77936 14.8169 4.39782 14.8169 4ZM24.8169 16C24.8169 17.6811 24.3184 19.3245 23.3844 20.7223C22.4504 22.1202 21.1229 23.2096 19.5697 23.853C18.0165 24.4963 16.3075 24.6646 14.6586 24.3367C13.0098 24.0087 11.4952 23.1992 10.3065 22.0104C9.11774 20.8217 8.30819 19.3071 7.98022 17.6583C7.65225 16.0094 7.82057 14.3004 8.46392 12.7472C9.10726 11.194 10.1967 9.8665 11.5945 8.93251C12.9924 7.99852 14.6358 7.5 16.3169 7.5C18.5705 7.50232 20.7312 8.39859 22.3247 9.99215C23.9183 11.5857 24.8146 13.7464 24.8169 16ZM21.8169 16C21.8169 14.9122 21.4943 13.8488 20.89 12.9444C20.2856 12.0399 19.4266 11.3349 18.4217 10.9187C17.4167 10.5024 16.3108 10.3935 15.2439 10.6057C14.177 10.8179 13.197 11.3417 12.4278 12.1109C11.6586 12.8801 11.1348 13.8601 10.9226 14.927C10.7104 15.9939 10.8193 17.0998 11.2356 18.1048C11.6518 19.1098 12.3568 19.9687 13.2613 20.5731C14.1657 21.1774 15.2291 21.5 16.3169 21.5C17.7751 21.4983 19.1731 20.9184 20.2042 19.8873C21.2352 18.8562 21.8152 17.4582 21.8169 16ZM6.75564 8.56125C6.89517 8.70078 7.06082 8.81146 7.24312 8.88697C7.42543 8.96249 7.62082 9.00135 7.81814 9.00135C8.01547 9.00135 8.21086 8.96249 8.39317 8.88697C8.57547 8.81146 8.74112 8.70078 8.88064 8.56125C9.02017 8.42172 9.13085 8.25607 9.20637 8.07377C9.28188 7.89147 9.32075 7.69607 9.32075 7.49875C9.32075 7.30143 9.28188 7.10603 9.20637 6.92373C9.13085 6.74143 9.02017 6.57578 8.88064 6.43625L7.38064 4.93625C7.09885 4.65446 6.71666 4.49615 6.31814 4.49615C5.91963 4.49615 5.53744 4.65446 5.25564 4.93625C4.97385 5.21804 4.81554 5.60024 4.81554 5.99875C4.81554 6.39726 4.97385 6.77946 5.25564 7.06125L6.75564 8.56125ZM6.75564 23.4363L5.25564 24.9363C5.11611 25.0758 5.00543 25.2414 4.92992 25.4237C4.85441 25.606 4.81554 25.8014 4.81554 25.9988C4.81554 26.1961 4.85441 26.3915 4.92992 26.5738C5.00543 26.7561 5.11611 26.9217 5.25564 27.0613C5.53744 27.343 5.91963 27.5014 6.31814 27.5014C6.51547 27.5014 6.71086 27.4625 6.89317 27.387C7.07547 27.3115 7.24111 27.2008 7.38064 27.0613L8.88064 25.5613C9.16244 25.2795 9.32075 24.8973 9.32075 24.4988C9.32075 24.1002 9.16244 23.718 8.88064 23.4363C8.59885 23.1545 8.21666 22.9961 7.81814 22.9961C7.41963 22.9961 7.03744 23.1545 6.75564 23.4363ZM24.8169 9C25.0139 9.00015 25.2091 8.96149 25.3912 8.8862C25.5733 8.81092 25.7387 8.7005 25.8781 8.56125L27.3781 7.06125C27.5177 6.92172 27.6284 6.75607 27.7039 6.57377C27.7794 6.39147 27.8182 6.19607 27.8182 5.99875C27.8182 5.80143 27.7794 5.60603 27.7039 5.42373C27.6284 5.24143 27.5177 5.07578 27.3781 4.93625C27.2386 4.79672 27.073 4.68604 26.8907 4.61053C26.7084 4.53501 26.513 4.49615 26.3156 4.49615C26.1183 4.49615 25.9229 4.53501 25.7406 4.61053C25.5583 4.68604 25.3927 4.79672 25.2531 4.93625L23.7531 6.43625C23.5421 6.64605 23.3983 6.91388 23.3399 7.20567C23.2815 7.49745 23.3112 7.80002 23.4252 8.07487C23.5393 8.34973 23.7325 8.58445 23.9803 8.74919C24.2281 8.91392 24.5193 9.00123 24.8169 9ZM25.8781 23.4387C25.5964 23.157 25.2142 22.9986 24.8156 22.9986C24.4171 22.9986 24.0349 23.157 23.7531 23.4387C23.4714 23.7205 23.313 24.1027 23.313 24.5012C23.313 24.8998 23.4714 25.282 23.7531 25.5637L25.2531 27.0637C25.5349 27.3455 25.9171 27.5039 26.3156 27.5039C26.7142 27.5039 27.0964 27.3455 27.3781 27.0637C27.6599 26.782 27.8182 26.3998 27.8182 26.0012C27.8182 25.6027 27.6599 25.2205 27.3781 24.9387L25.8781 23.4387ZM5.81689 16C5.81689 15.6022 5.65886 15.2206 5.37755 14.9393C5.09625 14.658 4.71472 14.5 4.31689 14.5H2.31689C1.91907 14.5 1.53754 14.658 1.25623 14.9393C0.97493 15.2206 0.816895 15.6022 0.816895 16C0.816895 16.3978 0.97493 16.7794 1.25623 17.0607C1.53754 17.342 1.91907 17.5 2.31689 17.5H4.31689C4.71472 17.5 5.09625 17.342 5.37755 17.0607C5.65886 16.7794 5.81689 16.3978 5.81689 16ZM16.3169 26.5C15.9191 26.5 15.5375 26.658 15.2562 26.9393C14.9749 27.2206 14.8169 27.6022 14.8169 28V30C14.8169 30.3978 14.9749 30.7794 15.2562 31.0607C15.5375 31.342 15.9191 31.5 16.3169 31.5C16.7147 31.5 17.0962 31.342 17.3776 31.0607C17.6589 30.7794 17.8169 30.3978 17.8169 30V28C17.8169 27.6022 17.6589 27.2206 17.3776 26.9393C17.0962 26.658 16.7147 26.5 16.3169 26.5ZM30.3169 14.5H28.3169C27.9191 14.5 27.5375 14.658 27.2562 14.9393C26.9749 15.2206 26.8169 15.6022 26.8169 16C26.8169 16.3978 26.9749 16.7794 27.2562 17.0607C27.5375 17.342 27.9191 17.5 28.3169 17.5H30.3169C30.7147 17.5 31.0962 17.342 31.3776 17.0607C31.6589 16.7794 31.8169 16.3978 31.8169 16C31.8169 15.6022 31.6589 15.2206 31.3776 14.9393C31.0962 14.658 30.7147 14.5 30.3169 14.5Z" fill="#006CF2" stroke="#006CF2" stroke-width="2" mask="url(#path-1-inside-1_57_220)"/>
</svg>
