<svg width="22" height="25" viewBox="0 0 22 25" fill="none" xmlns="http://www.w3.org/2000/svg">
    <path d="M0.648133 14.4668V14.4667C0.648133 13.0882 0.912805 11.8078 1.43868 10.6197C1.96884 9.42198 2.69976 8.35669 3.63367 7.42158L9.75591 1.39915C9.91167 1.2624 10.0825 1.15678 10.2701 1.0804L10.0826 0.619993L10.2701 1.0804C10.4596 1.0032 10.6405 0.967426 10.8157 0.966667C10.9896 0.96679 11.1693 1.00225 11.3581 1.07981C11.5466 1.15725 11.7181 1.26331 11.8742 1.39961L17.9946 7.42022C17.9951 7.42069 17.9955 7.42116 17.996 7.42163C18.9298 8.35577 19.6607 9.42099 20.1909 10.6196C20.7168 11.8086 20.9815 13.0891 20.9815 14.4667C20.9815 17.267 19.9959 19.6272 18.0147 21.577C16.0324 23.5279 13.6421 24.5 10.8148 24.5C7.9884 24.5 5.59804 23.5279 3.61478 21.5769C1.6328 19.6271 0.647284 17.267 0.648133 14.4668ZM2.3872 15.7422L2.45205 16.1667H2.88147H18.6815H19.105L19.1747 15.7489C19.4538 14.074 19.3046 12.5945 18.6794 11.3432C18.1003 10.1841 17.4872 9.27427 16.8306 8.64207L11.1663 3.04436L10.8148 2.69704L10.4633 3.04436L4.7989 8.64216C4.14448 9.27312 3.52645 10.1814 2.93601 11.3396C2.29915 12.5888 2.13127 14.067 2.3872 15.7422Z" fill="#006CF2" stroke="#006CF2"/>
</svg>
