<svg width="33" height="32" viewBox="0 0 33 32" fill="none" xmlns="http://www.w3.org/2000/svg">
    <path d="M24.4815 17H29.1482V28.3334H17.8148V17H23.4815H24.4815ZM15.8148 17V28.3334H4.48151V17H9.14817H10.1482H15.8148ZM11.1482 15V3.66669H22.4815V15H17.8148H16.8148H15.8148H11.1482Z" stroke="#006CF2" stroke-width="2"/>
    <path d="M16.8148 16H3.48151V29.3334H16.8148M16.8148 16V29.3334M16.8148 16H30.1482V29.3334H16.8148M16.8148 6.66669V12M10.1482 2.66669H23.4815V16H10.1482V2.66669Z" stroke="#006CF2" stroke-width="2" stroke-linecap="round" stroke-linejoin="round"/>
    <path d="M14.1482 9.33335L16.8148 6.66669L19.4815 9.33335M7.48151 22.6667H12.8148M7.48151 22.6667L10.1482 25.3334M7.48151 22.6667L10.1482 20M26.1482 22.6667H20.8148M26.1482 22.6667L23.4815 20M26.1482 22.6667L23.4815 25.3334" stroke="#006CF2" stroke-width="2" stroke-linecap="round" stroke-linejoin="round"/>
</svg>
