<svg width="33" height="32" viewBox="0 0 33 32" fill="none" xmlns="http://www.w3.org/2000/svg">
    <path d="M18.1482 24L11.4815 8L4.81482 24M15.4815 18.6667H7.48149M28.8148 24V20M28.8148 20V16M28.8148 20C28.8148 21.0609 28.3934 22.0783 27.6432 22.8284C26.8931 23.5786 25.8757 24 24.8148 24C23.754 24 22.7365 23.5786 21.9864 22.8284C21.2362 22.0783 20.8148 21.0609 20.8148 20C20.8148 18.9391 21.2362 17.9217 21.9864 17.1716C22.7365 16.4214 23.754 16 24.8148 16C25.8757 16 26.8931 16.4214 27.6432 17.1716C28.3934 17.9217 28.8148 18.9391 28.8148 20Z" stroke="#006CF2" stroke-width="2" stroke-linecap="round" stroke-linejoin="round"/>
</svg>
