<svg width="33" height="32" viewBox="0 0 33 32" fill="none" xmlns="http://www.w3.org/2000/svg">
    <path d="M11.0219 4.79289C11.2095 4.98043 11.3148 5.23478 11.3148 5.5V14C11.3148 15.4587 11.8943 16.8576 12.9257 17.8891C13.9572 18.9205 15.3561 19.5 16.8148 19.5C18.2735 19.5 19.6725 18.9205 20.7039 17.8891C21.7354 16.8576 22.3148 15.4587 22.3148 14V5.5C22.3148 5.23478 22.4202 4.98043 22.6077 4.79289C22.7952 4.60536 23.0496 4.5 23.3148 4.5C23.58 4.5 23.8344 4.60536 24.0219 4.79289C24.2095 4.98043 24.3148 5.23478 24.3148 5.5V14C24.3148 15.9891 23.5246 17.8968 22.1181 19.3033C20.7116 20.7098 18.8039 21.5 16.8148 21.5C14.8257 21.5 12.918 20.7098 11.5115 19.3033C10.105 17.8968 9.31482 15.9891 9.31482 14V5.5C9.31482 5.23478 9.42018 4.98043 9.60771 4.79289C9.79525 4.60536 10.0496 4.5 10.3148 4.5C10.58 4.5 10.8344 4.60536 11.0219 4.79289ZM7.60771 25.7929C7.79525 25.6054 8.0496 25.5 8.31482 25.5H25.3148C25.58 25.5 25.8344 25.6054 26.0219 25.7929C26.2095 25.9804 26.3148 26.2348 26.3148 26.5C26.3148 26.7652 26.2095 27.0196 26.0219 27.2071C25.8344 27.3946 25.58 27.5 25.3148 27.5H8.31482C8.0496 27.5 7.79525 27.3946 7.60771 27.2071C7.42018 27.0196 7.31482 26.7652 7.31482 26.5C7.31482 26.2348 7.42018 25.9804 7.60771 25.7929Z" fill="#006CF2" stroke="#006CF2"/>
</svg>
