<svg width="33" height="32" viewBox="0 0 33 32" fill="none" xmlns="http://www.w3.org/2000/svg">
    <path d="M1.79321 3.11175C2.09952 2.80544 2.51497 2.63336 2.94815 2.63336H30.6815C31.1147 2.63336 31.5301 2.80544 31.8364 3.11175C32.1427 3.41806 32.3148 3.83351 32.3148 4.2667V27.7334C32.3148 28.1665 32.1427 28.582 31.8364 28.8883C31.5301 29.1946 31.1147 29.3667 30.6815 29.3667H2.94815C2.51497 29.3667 2.09952 29.1946 1.79321 28.8883C1.4869 28.582 1.31482 28.1665 1.31482 27.7334V4.2667C1.31482 3.83351 1.4869 3.41806 1.79321 3.11175ZM16.8148 23.1667C17.756 23.1667 18.6879 22.9813 19.5574 22.6212C20.4269 22.261 21.2169 21.7331 21.8824 21.0676C22.5479 20.4021 23.0758 19.6121 23.436 18.7426C23.7961 17.8731 23.9815 16.9412 23.9815 16C23.9815 15.0589 23.7961 14.127 23.436 13.2575C23.0758 12.388 22.5479 11.5979 21.8824 10.9324C21.2169 10.2669 20.4269 9.73905 19.5574 9.37889C18.6879 9.01873 17.756 8.83336 16.8148 8.83336C14.9141 8.83336 13.0912 9.58842 11.7472 10.9324C10.4032 12.2764 9.64815 14.0993 9.64815 16C9.64815 17.9007 10.4032 19.7236 11.7472 21.0676C13.0912 22.4116 14.9141 23.1667 16.8148 23.1667Z" fill="#006CF2" stroke="#006CF2"/>
</svg>
