<svg width="33" height="32" viewBox="0 0 33 32" fill="none" xmlns="http://www.w3.org/2000/svg">
    <path d="M20.8148 19.1667C21.2427 19.1667 21.6562 19.131 22.0548 19.0586C22.4501 18.9869 22.8479 18.8797 23.2483 18.7381L23.47 18.6596L23.5509 18.4388C24.0718 17.0184 24.1557 15.6278 23.7804 14.283C23.415 12.9733 22.7788 11.8569 21.8684 10.9465C20.9588 10.0369 19.843 9.40082 18.5335 9.03451C17.1885 8.65824 15.7972 8.74221 14.3759 9.26398L14.155 9.34506L14.0767 9.56694C13.9351 9.968 13.828 10.3662 13.7562 10.7613C13.6838 11.1599 13.6482 11.573 13.6482 12C13.6482 12.9965 13.8326 13.9311 14.2064 14.798C14.576 15.6555 15.0948 16.4085 15.7611 17.0535C16.4061 17.7207 17.1592 18.2401 18.0169 18.6098C18.8838 18.9836 19.8184 19.1676 20.8148 19.1667ZM20.8148 19.1667V18.6667L20.8153 19.1667C20.8152 19.1667 20.815 19.1667 20.8148 19.1667ZM8.77699 12.1113L8.91979 12.0378L8.99308 11.8948C9.41498 11.0722 9.93498 10.3536 10.5524 9.73624C11.1698 9.11884 11.8878 8.59931 12.7095 8.17835L12.8583 8.1021L12.9313 7.95165C13.6208 6.53093 14.6757 5.37854 16.1109 4.49209C17.542 3.60821 19.1063 3.16669 20.8148 3.16669C22.0387 3.16669 23.1821 3.39841 24.2501 3.85913C25.3274 4.32383 26.263 4.95533 27.0613 5.75357C27.8595 6.55182 28.491 7.48746 28.9557 8.56473C29.4165 9.63276 29.6482 10.7762 29.6482 12C29.6482 13.8025 29.2042 15.373 28.3282 16.7287C27.4418 18.1006 26.2851 19.1515 24.8527 19.8888L24.7099 19.9623L24.6366 20.1052C24.2147 20.9279 23.6947 21.6464 23.0773 22.2638C22.4599 22.8812 21.7419 23.4007 20.9202 23.8217L20.7772 23.895L20.7036 24.0379C19.9684 25.4663 18.8981 26.6224 17.4826 27.5097C16.0753 28.3919 14.5233 28.8334 12.8148 28.8334C11.591 28.8334 10.4476 28.6016 9.37955 28.1409C8.30228 27.6762 7.36664 27.0447 6.56839 26.2465C5.77015 25.4482 5.13865 24.5126 4.67395 23.4353C4.21323 22.3673 3.98151 21.2239 3.98151 20C3.98151 18.2915 4.42298 16.7395 5.30515 15.3323C6.19249 13.9167 7.34851 12.8465 8.77699 12.1113ZM17.12 25.7294L18.2831 24.8334H16.8148C15.591 24.8334 14.4476 24.6016 13.3796 24.1409C12.3023 23.6762 11.3666 23.0447 10.5684 22.2465C9.77015 21.4482 9.13865 20.5126 8.67394 19.4353C8.21323 18.3673 7.98151 17.2239 7.98151 16V14.53L7.08519 15.6952C6.60696 16.3169 6.2466 16.9951 6.00636 17.7283C5.76724 18.4581 5.64817 19.2161 5.64817 20C5.64817 20.9986 5.83878 21.935 6.2246 22.8031C6.60428 23.6574 7.11651 24.4088 7.76129 25.0536C8.40606 25.6983 9.1575 26.2106 10.0118 26.5903C10.8799 26.9761 11.8162 27.1667 12.8148 27.1667C13.5996 27.1667 14.358 27.0476 15.0879 26.8085C15.8211 26.5682 16.4991 26.2078 17.12 25.7294ZM16.8144 23.1667H16.8148C17.5996 23.1667 18.3675 23.0476 19.1167 22.8099C19.8723 22.5702 20.5631 22.2098 21.1867 21.7294L22.3498 20.8334H20.8815C19.6358 20.8334 18.4828 20.596 17.4168 20.1253C16.3378 19.6488 15.4008 19.0114 14.6017 18.2131C13.8027 17.4141 13.1652 16.4772 12.6897 15.3983C12.2197 14.3321 11.9824 13.1789 11.9815 11.933L11.9805 10.4646L11.0852 11.6285C10.605 12.2528 10.2446 12.944 10.0049 13.6995C9.76723 14.4487 9.64817 15.2161 9.64817 16C9.64817 16.9965 9.83264 17.9311 10.2064 18.798C10.576 19.6555 11.0948 20.4085 11.7611 21.0535C12.4062 21.7208 13.1595 22.2398 14.0173 22.6087C14.8839 22.9813 15.8182 23.1657 16.8144 23.1667ZM25.6482 16.0663L25.6472 17.538L26.5445 16.3715C27.0247 15.7472 27.3851 15.056 27.6248 14.3006C27.8624 13.5514 27.9815 12.7839 27.9815 12C27.9815 11.0035 27.797 10.069 27.4233 9.20208C27.0536 8.34458 26.5349 7.59155 25.8686 6.94654C25.2235 6.2792 24.4702 5.76023 23.6124 5.39135C22.7457 5.01871 21.8115 4.8343 20.8153 4.83335H20.8148C19.9889 4.83335 19.2079 4.95144 18.4752 5.19154C17.7419 5.4318 17.064 5.79223 16.443 6.2706L15.2799 7.16669H16.7482C17.9939 7.16669 19.1468 7.40402 20.2129 7.87475C21.2919 8.3512 22.2288 8.98868 23.028 9.78691C23.8271 10.586 24.465 11.523 24.9414 12.602C25.4121 13.6679 25.649 14.8208 25.6482 16.0663Z" fill="white" stroke="white"/>
</svg>
