<svg width="33" height="33" viewBox="0 0 33 33" fill="none" xmlns="http://www.w3.org/2000/svg">
    <path d="M27.3403 26.1682L27.3402 26.1683L27.3462 26.174C27.4258 26.251 27.4892 26.343 27.5328 26.4447C27.5764 26.5464 27.5993 26.6557 27.6002 26.7664C27.6011 26.877 27.5799 26.9868 27.5379 27.0891L28.0006 27.2788L27.5379 27.0891C27.496 27.1915 27.434 27.2845 27.3557 27.3627C27.2774 27.4409 27.1843 27.5027 27.0819 27.5445C26.9794 27.5864 26.8697 27.6074 26.759 27.6063C26.6484 27.6053 26.5391 27.5822 26.4374 27.5385L26.2398 27.9977L26.4374 27.5385C26.3358 27.4947 26.2439 27.4312 26.1671 27.3515L26.1671 27.3515L26.1607 27.3451L21.3874 22.5718L21.0756 22.26L20.7273 22.5303C18.6843 24.1162 16.1139 24.8638 13.5391 24.6211C10.9643 24.3784 8.57885 23.1636 6.86824 21.224C5.15763 19.2844 4.2505 16.7658 4.3315 14.1809C4.41251 11.596 5.47556 9.13909 7.30426 7.31039C9.13296 5.48169 11.5898 4.41864 14.1747 4.33763C16.7596 4.25663 19.2783 5.16377 21.2179 6.87438C23.1575 8.58499 24.3723 10.9705 24.615 13.5452C24.8577 16.12 24.11 18.6905 22.5242 20.7334L22.2538 21.0817L22.5656 21.3935L22.567 21.3949L27.3403 26.1682ZM15.3272 13.1666V13.6666H15.8272H18.4938C18.7149 13.6666 18.9268 13.7544 19.0831 13.9107C19.2394 14.067 19.3272 14.279 19.3272 14.5C19.3272 14.721 19.2394 14.933 19.0831 15.0892C18.9268 15.2455 18.7149 15.3333 18.4938 15.3333H15.8272H15.3272V15.8333V18.5C15.3272 18.721 15.2394 18.933 15.0831 19.0892C14.9268 19.2455 14.7149 19.3333 14.4938 19.3333C14.2728 19.3333 14.0609 19.2455 13.9046 19.0892C13.7483 18.933 13.6605 18.721 13.6605 18.5V15.8333V15.3333H13.1605H10.4938C10.2728 15.3333 10.0609 15.2455 9.90459 15.0892C9.74831 14.933 9.66051 14.721 9.66051 14.5C9.66051 14.279 9.74831 14.067 9.90459 13.9107C10.0609 13.7544 10.2728 13.6666 10.4938 13.6666H13.1605H13.6605V13.1666V10.5C13.6605 10.279 13.7483 10.067 13.9046 9.91072C14.0609 9.75444 14.2728 9.66665 14.4938 9.66665C14.7149 9.66665 14.9268 9.75444 15.0831 9.91072C15.2394 10.067 15.3272 10.279 15.3272 10.5V13.1666ZM14.4938 23C15.6101 23 16.7154 22.7801 17.7467 22.353C18.7779 21.9258 19.715 21.2997 20.5043 20.5104C21.2936 19.7211 21.9197 18.7841 22.3468 17.7528C22.774 16.7215 22.9938 15.6162 22.9938 14.5C22.9938 13.3837 22.774 12.2784 22.3468 11.2472C21.9197 10.2159 21.2936 9.27887 20.5043 8.48957C19.715 7.70027 18.7779 7.07417 17.7467 6.647C16.7154 6.21984 15.6101 5.99998 14.4938 5.99998C12.2395 5.99998 10.0775 6.89551 8.48344 8.48957C6.88938 10.0836 5.99385 12.2456 5.99385 14.5C5.99385 16.7543 6.88938 18.9163 8.48344 20.5104C10.0775 22.1044 12.2395 23 14.4938 23Z" fill="#006CF2" stroke="#006CF2"/>
</svg>
