<svg width="33" height="32" viewBox="0 0 33 32" fill="none" xmlns="http://www.w3.org/2000/svg">
    <path d="M24.412 2.72059L24.4118 2.72053C24.3293 2.92485 24.3289 3.12654 24.4251 3.35568C24.529 3.60291 24.6837 3.77702 24.8935 3.89766C26.2119 4.6278 27.2784 5.64853 28.0888 6.95199C28.9072 8.26821 29.3148 9.73266 29.3148 11.333C29.3148 11.3331 29.3148 11.3332 29.3148 11.3333H28.8148L24.412 2.72059ZM24.412 2.72059L24.4163 2.7089M24.412 2.72059L24.4163 2.7089M24.4163 2.7089C24.5023 2.47974 24.643 2.3349 24.8572 2.24522C25.0651 2.1582 25.2303 2.17119 25.4016 2.26829L25.4107 2.27346M24.4163 2.7089L25.4107 2.27346M25.4107 2.27346L25.42 2.27825M25.4107 2.27346L25.42 2.27825M25.42 2.27825C27.073 3.12591 28.4131 4.34835 29.4448 5.95427C30.4687 7.54793 30.9824 9.33631 30.9815 11.3331V11.3333M25.42 2.27825L30.9815 11.3333M30.9815 11.3333C30.9815 13.3312 30.4674 15.1196 29.4436 16.7123C28.4118 18.3175 27.072 19.54 25.4197 20.3886L25.4098 20.3937M30.9815 11.3333L25.4098 20.3937M25.4098 20.3937L25.4001 20.3992M25.4098 20.3937L25.4001 20.3992M25.4001 20.3992C25.2303 20.4962 25.0657 20.5098 24.8568 20.4226C24.6423 20.333 24.502 20.1883 24.4169 19.9592L24.417 19.9591M25.4001 20.3992L24.417 19.9591M24.417 19.9591L24.4124 19.9476M24.417 19.9591L24.4124 19.9476M24.4124 19.9476C24.33 19.7417 24.3302 19.5396 24.4263 19.3114M24.4124 19.9476L24.4263 19.3114M24.4263 19.3114C24.5302 19.0648 24.6848 18.8901 24.8944 18.7685L24.4263 19.3114ZM3.98151 26.6673V26.6667V5.33334C3.98151 4.73379 4.18933 4.23263 4.61906 3.80289C5.04878 3.37317 5.54931 3.16594 6.14757 3.16667H6.14818H16.8148C17.0664 3.16667 17.2542 3.24644 17.412 3.40422C17.5697 3.56194 17.6488 3.74886 17.6482 3.99882V4C17.6482 4.2516 17.5684 4.43933 17.4106 4.59712L17.7642 4.95067L17.4106 4.59712C17.2529 4.75484 17.066 4.83393 16.816 4.83334H16.8148H6.14818H5.64818V5.33334V26.6667V27.1667H6.14818H20.8148H21.3148V26.6667V24C21.3148 23.7484 21.3946 23.5607 21.5524 23.4029C21.7101 23.2452 21.897 23.1661 22.147 23.1667H22.1482C22.3998 23.1667 22.5875 23.2464 22.7453 23.4042C22.903 23.5619 22.9821 23.7489 22.9815 23.9988V24V26.6667C22.9815 27.2662 22.7737 27.7674 22.344 28.1971C21.9142 28.6268 21.4137 28.8341 20.8154 28.8333H20.8148H6.14818C5.54863 28.8333 5.04746 28.6255 4.61773 28.1958C4.18801 27.7661 3.98078 27.2655 3.98151 26.6673ZM9.31484 22.6678V22.6667C9.31484 22.4151 9.39461 22.2273 9.5524 22.0696C9.71012 21.9118 9.89703 21.8327 10.147 21.8333H10.1482H16.8148C17.0664 21.8333 17.2542 21.9131 17.412 22.0709C17.5697 22.2286 17.6488 22.4155 17.6482 22.6655V22.6667C17.6482 22.9183 17.5684 23.106 17.4106 23.2638C17.2529 23.4215 17.066 23.5006 16.816 23.5H16.8148H10.1482C9.89658 23.5 9.70885 23.4202 9.55106 23.2624C9.39334 23.1047 9.31425 22.9178 9.31484 22.6678ZM9.31484 18.6678V18.6667C9.31484 18.4151 9.39461 18.2273 9.5524 18.0696C9.71012 17.9118 9.89703 17.8327 10.147 17.8333H10.1482H14.1482C14.3998 17.8333 14.5875 17.9131 14.7453 18.0709C14.903 18.2286 14.9821 18.4155 14.9815 18.6655V18.6667C14.9815 18.9183 14.9017 19.106 14.744 19.2638C14.5862 19.4215 14.3993 19.5006 14.1494 19.5H14.1482H10.1482C9.89658 19.5 9.70885 19.4202 9.55106 19.2624C9.39334 19.1047 9.31425 18.9178 9.31484 18.6678ZM15.8351 14.3131L15.6886 14.1667H15.4815H12.8148C12.5632 14.1667 12.3755 14.0869 12.2177 13.9291C12.06 13.7714 11.9809 13.5845 11.9815 13.3345V13.3333V9.33334C11.9815 9.08174 12.0613 8.89401 12.2191 8.73622C12.3768 8.5785 12.5637 8.49941 12.8137 8.5H12.8148H15.4815H15.6886L15.8351 8.35356L20.0351 4.15356C20.0963 4.09228 20.1328 4.08141 20.1423 4.07924C20.1484 4.07786 20.17 4.07297 20.2225 4.09488C20.2763 4.11726 20.2887 4.13657 20.2921 4.142C20.2972 4.15008 20.3148 4.18244 20.3148 4.26667V18.4C20.3148 18.4842 20.2972 18.5166 20.2921 18.5247C20.2887 18.5301 20.2763 18.5494 20.2225 18.5718C20.17 18.5937 20.1484 18.5888 20.1423 18.5874C20.1328 18.5853 20.0963 18.5744 20.0351 18.5131L15.8351 14.3131ZM23.9815 14.9661V7.70052C24.3725 8.03775 24.7077 8.43507 24.9882 8.89406C25.4259 9.61028 25.6482 10.419 25.6482 11.3333C25.6482 12.2477 25.4259 13.0564 24.9882 13.7726C24.7077 14.2316 24.3725 14.6289 23.9815 14.9661Z" fill="#006CF2" stroke="#006CF2"/>
</svg>
