<svg width="33" height="32" viewBox="0 0 33 32" fill="none" xmlns="http://www.w3.org/2000/svg">
    <path d="M29.6148 8.03336H4.01482C3.59931 8.03336 3.20083 8.19842 2.90702 8.49222C2.61321 8.78603 2.44815 9.18452 2.44815 9.60002V22.4C2.44815 22.8155 2.61321 23.214 2.90702 23.5078C3.20083 23.8016 3.59932 23.9667 4.01482 23.9667H29.6148C30.0303 23.9667 30.4288 23.8016 30.7226 23.5078C31.0164 23.214 31.1815 22.8155 31.1815 22.4V9.60002C31.1815 9.18452 31.0164 8.78603 30.7226 8.49222C30.4288 8.19842 30.0303 8.03336 29.6148 8.03336ZM2.10563 7.69084C2.61198 7.18449 3.29873 6.90002 4.01482 6.90002H29.6148C30.3309 6.90002 31.0177 7.18449 31.524 7.69084C32.0304 8.19718 32.3148 8.88394 32.3148 9.60002V22.4C32.3148 23.1161 32.0304 23.8029 31.524 24.3092C31.0177 24.8156 30.3309 25.1 29.6148 25.1H4.01482C3.29873 25.1 2.61198 24.8156 2.10563 24.3092C1.59928 23.8029 1.31482 23.1161 1.31482 22.4V9.60002C1.31482 8.88394 1.59928 8.19718 2.10563 7.69084ZM5.58149 11.1667H6.71482V12.3H5.58149V11.1667ZM9.84815 12.3V11.1667H10.9815V12.3H9.84815ZM14.1148 11.1667H15.2482V12.3H14.1148V11.1667ZM18.3815 12.3V11.1667H19.5148V12.3H18.3815ZM22.6482 11.1667H23.7815V12.3H22.6482V11.1667ZM26.9148 12.3V11.1667H28.0482V12.3H26.9148ZM24.7815 15.4334H25.9148V16.5667H24.7815V15.4334ZM26.9148 20.8334V19.7H28.0482V20.8334H26.9148ZM20.5148 15.4334H21.6482V16.5667H20.5148V15.4334ZM16.2482 16.5667V15.4334H17.3815V16.5667H16.2482ZM11.9815 15.4334H13.1148V16.5667H11.9815V15.4334ZM7.71482 16.5667V15.4334H8.84815V16.5667H7.71482ZM5.58149 19.7H6.71482V20.8334H5.58149V19.7ZM9.84815 20.8334V19.7H23.7815V20.8334H9.84815Z" fill="#1B0044" stroke="#006CF2"/>
</svg>
